<svg version="1.1" id="Capa_1" xmlns="http://www.w3.org/2000/svg" xmlns:xlink="http://www.w3.org/1999/xlink" x="0px"
  y="0px" viewBox="0 0 250 100" style="enable-background:new 0 0 250 100;" xml:space="preserve">
  <style type="text/css">
    .st0 {
      fill: #E0A328;
    }

    .st1 {
      fill: #254D4D;
    }
  </style>
  <g>
    <g>
      <g>
        <g>
          <g>
            <path class="st0" d="M25,78.9c-0.4,0-0.7-0.1-1-0.2c-5.3-2.4-9.9-5.2-13.5-8.6c-3-2.7-5.4-5.8-7.2-9.1
						c-3.2-5.9-3.2-10.5-3.2-10.7v-1.5L8,48.7v1.5c0,0,0,0.2,0,0.4c0.1,1.2,0.6,4.3,2.9,8c2.9,4.7,7.6,8.5,14,11.3
						c4.9-2.2,8.8-4.9,11.7-8.2L5.7,44l-5.7-3.4V27.8c0-1,0.6-1.9,1.4-2.3c8.8-4.2,23.4-4.6,23.5-4.6c0.1,0,14.8,0.4,23.4,4.6
						c1.1,0.5,1.2,1.6,1.3,2.2c0.1,1,0.2,2.6,0.2,5.4v11h-8V33c-6.2-2.9-16.9-3.2-17-3.2c-0.1,0-10.7,0.3-16.9,3.2v3.1l39.7,22.7
						l-0.6,1.3c-1.7,3.4-4.1,6.6-7.1,9.5c-3.7,3.6-8.5,6.7-14,9.1C25.7,78.9,25.3,78.9,25,78.9z M42.1,33.1
						C42.1,33.1,42.1,33.1,42.1,33.1C42.1,33.1,42.1,33.1,42.1,33.1z M7.7,33.1C7.7,33.1,7.7,33.1,7.7,33.1
						C7.7,33.1,7.7,33.1,7.7,33.1z" />
          </g>
        </g>
      </g>
    </g>
    <g>
      <path class="st1" d="M67.4,61.9l4.6-6.5c2.4,2.4,6.1,4.4,10.7,4.4c3,0,4.8-1.2,4.8-2.8c0-4.6-19-0.9-19-13.8
			c0-5.6,4.8-10.7,13.4-10.7c5.4,0,10.1,1.6,13.6,4.7l-4.7,6.2c-2.8-2.3-6.5-3.5-9.8-3.5c-2.5,0-3.6,1-3.6,2.4c0,4.3,19,1.2,19,13.6
			c0,6.7-5,11.2-14,11.2C75.5,67.3,70.8,65.2,67.4,61.9z" />
      <path class="st1" d="M100.3,66.7V33.1h8.6v33.5H100.3z" />
      <path class="st1" d="M112.6,61.9l4.6-6.5c2.4,2.4,6.1,4.4,10.7,4.4c3,0,4.8-1.2,4.8-2.8c0-4.6-19-0.9-19-13.8
			c0-5.6,4.8-10.7,13.4-10.7c5.4,0,10.1,1.6,13.6,4.7l-4.7,6.2c-2.8-2.3-6.5-3.5-9.8-3.5c-2.5,0-3.6,1-3.6,2.4c0,4.3,19,1.2,19,13.6
			c0,6.7-5,11.2-14,11.2C120.7,67.3,115.9,65.2,112.6,61.9z" />
      <path class="st1" d="M143.7,49.9c0-10.4,7.8-17.4,18.2-17.4c8.1,0,12.4,4.6,14.6,9l-7.4,3.5c-1.1-2.7-4-4.9-7.2-4.9
			c-5.5,0-9.4,4.2-9.4,9.7s3.9,9.7,9.4,9.7c3.2,0,6.1-2.2,7.2-4.9l7.4,3.5c-2.2,4.3-6.5,9-14.6,9C151.6,67.3,143.7,60.2,143.7,49.9z
			" />
      <path class="st1" d="M178.5,49.9c0-10.2,7.7-17.4,18-17.4s17.9,7.1,17.9,17.4s-7.6,17.4-17.9,17.4S178.5,60.1,178.5,49.9z
			 M205.6,49.9c0-5.5-3.6-9.7-9.1-9.7c-5.6,0-9.2,4.2-9.2,9.7c0,5.4,3.6,9.7,9.2,9.7C202,59.6,205.6,55.4,205.6,49.9z" />
      <path class="st1" d="M217.1,49.9c0-10.7,8.1-17.4,18.2-17.4c7.5,0,12,4,14.3,8.1l-7.2,3.8c-1.3-2.2-3.8-4.3-7.1-4.3
			c-5.5,0-9.4,4.2-9.4,9.7s3.9,9.7,9.4,9.7c2.5,0,5-1,6.2-2V55h-7.5v-7.6h16.2v13.3c-3.6,4-8.5,6.5-14.8,6.5
			C225.2,67.3,217.1,60.6,217.1,49.9z" />
    </g>
  </g>
</svg>