<svg version="1.1" id="Capa_1" xmlns="http://www.w3.org/2000/svg" xmlns:xlink="http://www.w3.org/1999/xlink" x="0px"
  y="0px" viewBox="0 0 1426.4 464.8" style="enable-background:new 0 0 1426.4 464.8;" xml:space="preserve">
  <style type="text/css">
    .st0 {
      fill: #E4E4E4;
    }
  </style>
  <g id="Capa_2_00000124878400542519523330000016487405329893965710_">
    <g id="Capa_1-2">
      <path class="st0" d="M699.9,295.3c-17.4,19.3-39,29-64.8,29s-47.6-8.8-65.4-26.3c-17.7-17.5-26.6-40.9-26.6-70.2s9.1-53.3,27.4-72
			c18.2-18.7,39.1-28.1,62.6-28.1s43,9.7,58.4,29v-26h55.1V303c0,17.6-3.1,33.3-9.2,47c-6.1,13.7-14.3,24.5-24.6,32.3
			c-20.3,16.2-44.3,24.2-72,24.2c-15.3-0.1-30.5-2.5-45-7.2c-14.5-4.4-28.1-11.3-40.2-20.4l21.3-41.5c18.1,13.7,37.3,20.6,57.5,20.6
			c20.2,0,36.2-5,47.9-15.1C694,333,699.9,317.1,699.9,295.3z M692.2,225.7c0-15.8-4.4-28.2-13.2-37.3s-19.7-13.6-32.7-13.6
			c-12.6-0.2-24.7,4.7-33.6,13.6c-9.4,9.1-14.1,21.4-14.1,37.1c0,15.7,4.6,28.3,13.8,38c8.6,9.4,20.8,14.7,33.6,14.5
			c13.2,0,24.2-4.8,33.1-14.3C687.8,254.2,692.2,241.5,692.2,225.7L692.2,225.7z" />
      <path class="st0" d="M948.2,328.7h-51.8v-23.9c-14.2,17.9-31.8,26.8-52.7,26.8s-38.5-6.1-52.7-18.2
			c-14.2-12.1-21.3-28.3-21.3-48.5c0-20.2,7.3-35.3,22-45.4c14.7-10,34.8-15,60.2-15.1h41.1v-1.1c0-21.1-11.1-31.6-33.4-31.6
			c-10.4,0.1-20.6,2.1-30.3,5.7c-9.7,3.3-18.8,8.1-27,14.1l-24.6-35.6c26-18.9,55.6-28.3,88.9-28.3c24,0,43.6,6,58.8,18
			s22.8,31,22.8,56.9L948.2,328.7z M892.8,253.4v-9.6h-34.5c-22,0-33,6.9-33.1,20.6c0,7.1,2.6,12.6,7.9,16.4
			c5.3,3.8,12.8,5.7,22.6,5.7c9.4,0.1,18.6-3.1,25.9-9C889,271.5,892.7,263.5,892.8,253.4L892.8,253.4z" />
      <path class="st0" d="M1035.2,328.7h-55.1V56.2h55.1V328.7z" />
      <path class="st0" d="M1240.2,300.1c-22.3,21.1-48.4,31.6-78.4,31.6c-30,0-54.8-9.2-74.4-27.7c-19.6-18.5-29.4-43.3-29.4-74.4
			s10-55.8,30-74.2c19.9-18.4,43.5-27.6,70.7-27.6c27.2,0,50.3,8.2,69.2,24.6c19,16.4,28.5,38.9,28.5,67.6v29.4h-144
			c1.7,10.8,7.3,19.6,16.9,26.5c9.4,6.8,20.7,10.4,32.3,10.3c19.3,0,35.2-6.5,47.8-19.5L1240.2,300.1z M1187.3,182.9
			c-7.6-6.4-16.8-9.6-27.7-9.6c-10.8,0-21.3,3.4-29.9,9.9c-8.9,6.3-14.6,16-15.8,26.8h86.7C1199.3,198.3,1194.9,189.3,1187.3,182.9z
			" />
      <path class="st0" d="M1426.4,267.2c0,19.5-7.2,35.1-21.5,46.8s-32.5,17.6-54.5,17.6c-14.7,0-30-2.6-45.9-7.9
			c-15.6-5.1-30.2-13-43-23.3l24.2-34.5c20.6,15.9,42.5,23.9,65.8,23.9c7.1,0,12.7-1.4,16.9-4.2s6.3-6.6,6.2-11.2
			c0-4.7-2.9-9-8.6-12.9s-14.1-7.6-25-11c-10.9-3.4-19.2-6.4-25-8.8c-6.8-3-13.3-6.6-19.6-10.7c-14.9-9.3-22.4-23-22.4-41.3
			s7.3-33.1,22-44.6c14.7-11.5,33.6-17.3,56.9-17.3s46.5,7.8,69.8,23.5l-20.6,36.7c-17.1-11.7-34.2-17.6-51.2-17.6
			s-25.5,4.7-25.5,14c0,5.1,2.7,9.2,8.1,12.1c5.4,2.9,14.3,6.4,26.8,10.3c12.5,3.9,21.4,6.9,26.6,9c6.6,2.7,12.9,6,18.9,9.7
			C1419.5,233.9,1426.4,247.7,1426.4,267.2z" />
      <polygon class="st0" points="213.9,464.8 0,355.6 0,303 214,412.1 427.2,304.4 427.2,357.1 		" />
      <polygon class="st0" points="213.9,362.3 0,253.1 0,200.5 214,309.6 427.2,201.8 427.2,254.5 		" />
      <polygon class="st0" points="223.9,255.4 213.4,260.6 202.9,255.4 0,154 0,112 224,0 224.1,52.7 63,133 213.4,208.2 362.7,133.6 
			314.7,108.6 213.5,159.2 213.5,106.7 304.4,61.2 315.3,56.2 325.8,61.4 427.2,113.1 427.2,155 		" />
    </g>
  </g>
</svg>